<svg xmlns="http://www.w3.org/2000/svg" xmlns:xlink="http://www.w3.org/1999/xlink" width="2000" zoomAndPan="magnify" viewBox="0 0 1500 1499.999933" height="2000" preserveAspectRatio="xMidYMid meet" version="1.0"><path fill="#ff751f" d="M 619.242188 1137.335938 L 256.578125 1137.335938 C 234.375 1137.335938 214.636719 1122.53125 204.769531 1105.261719 L 108.550781 937.5 L 9.867188 767.269531 C 0 750 0 727.796875 12.335938 710.527344 L 108.550781 540.296875 C 111.019531 540.296875 111.019531 537.828125 111.019531 537.828125 L 207.238281 370.066406 C 219.574219 352.796875 236.84375 342.925781 256.578125 342.925781 L 508.222656 342.925781 C 513.15625 342.925781 518.09375 342.925781 520.558594 347.863281 C 525.492188 352.796875 525.492188 357.730469 525.492188 362.664062 C 523.027344 370.066406 523.027344 379.933594 523.027344 389.800781 C 523.027344 404.605469 525.492188 416.941406 530.425781 431.742188 C 530.425781 436.675781 530.425781 441.613281 527.960938 446.546875 C 523.027344 451.480469 518.09375 453.949219 513.15625 453.949219 L 288.652344 453.949219 L 207.238281 592.105469 C 207.238281 594.574219 207.238281 594.574219 204.769531 597.039062 L 123.355469 740.132812 L 204.769531 883.222656 L 288.652344 1026.316406 L 619.242188 1026.316406 L 700.65625 883.222656 C 703.125 880.757812 703.125 880.757812 703.125 878.289062 L 784.539062 740.132812 L 703.125 599.507812 C 703.125 599.507812 703.125 597.039062 700.65625 597.039062 L 668.585938 540.296875 C 666.117188 535.363281 666.117188 530.425781 668.585938 525.492188 C 671.050781 520.558594 675.988281 518.09375 680.921875 515.625 C 703.125 510.691406 725.328125 500.824219 742.597656 483.550781 C 745.066406 481.085938 750 478.617188 754.933594 478.617188 C 759.867188 481.085938 764.800781 483.550781 767.269531 488.488281 L 796.875 540.296875 C 799.34375 542.761719 799.34375 542.761719 799.34375 542.761719 L 880.757812 683.386719 L 1102.796875 683.386719 C 1107.730469 683.386719 1112.664062 685.855469 1115.132812 690.789062 C 1117.597656 693.257812 1120.066406 698.191406 1117.597656 703.125 C 1115.132812 712.992188 1115.132812 722.863281 1115.132812 732.730469 C 1115.132812 747.53125 1117.597656 759.867188 1120.066406 772.203125 C 1122.53125 779.605469 1122.53125 784.539062 1117.597656 789.472656 C 1115.132812 791.941406 1110.199219 794.40625 1105.261719 794.40625 L 880.757812 794.40625 L 799.34375 935.03125 C 799.34375 935.03125 799.34375 937.5 796.875 937.5 L 715.460938 1080.59375 L 796.875 1223.683594 L 821.546875 1265.625 C 824.011719 1270.558594 824.011719 1275.492188 821.546875 1280.425781 C 819.078125 1285.363281 816.613281 1287.828125 811.675781 1290.296875 C 789.472656 1295.230469 767.269531 1307.566406 752.46875 1324.835938 C 747.53125 1327.300781 742.597656 1329.769531 737.664062 1329.769531 C 732.730469 1327.300781 727.796875 1324.835938 725.328125 1319.902344 L 700.65625 1280.425781 Z M 989.308594 1366.777344 L 1211.347656 1366.777344 L 1292.761719 1223.683594 L 1376.644531 1080.59375 L 1295.230469 939.96875 C 1295.230469 939.96875 1292.761719 939.96875 1292.761719 937.5 L 1263.15625 885.691406 C 1260.691406 880.757812 1260.691406 875.824219 1260.691406 870.886719 C 1263.15625 865.953125 1268.09375 861.019531 1273.027344 861.019531 C 1297.699219 856.085938 1317.433594 843.75 1334.703125 828.949219 C 1337.171875 824.011719 1342.105469 821.546875 1349.507812 824.011719 C 1354.441406 824.011719 1356.90625 826.480469 1359.375 831.414062 L 1388.980469 883.222656 C 1391.449219 883.222656 1391.449219 883.222656 1391.449219 885.691406 L 1487.664062 1053.453125 C 1497.53125 1070.722656 1497.53125 1092.925781 1487.664062 1107.730469 L 1487.664062 1110.199219 L 1388.980469 1280.425781 L 1290.296875 1450.65625 C 1280.425781 1467.925781 1263.15625 1477.796875 1243.421875 1477.796875 L 984.375 1477.796875 C 979.441406 1477.796875 974.507812 1475.328125 969.574219 1472.863281 C 967.105469 1467.925781 967.105469 1462.992188 967.105469 1455.59375 C 972.039062 1443.257812 974.507812 1428.453125 974.507812 1416.117188 C 974.507812 1406.25 974.507812 1396.382812 972.039062 1386.511719 C 972.039062 1381.578125 972.039062 1376.644531 974.507812 1374.175781 C 979.441406 1369.242188 981.90625 1366.777344 989.308594 1366.777344 Z M 678.453125 239.308594 L 700.65625 199.835938 C 703.125 197.367188 703.125 197.367188 703.125 194.902344 L 799.34375 27.136719 C 809.210938 9.867188 828.949219 0 848.683594 0 L 1243.421875 0 C 1265.625 0 1285.363281 12.335938 1292.761719 32.074219 L 1388.980469 199.835938 L 1487.664062 370.066406 C 1500 387.335938 1497.53125 409.539062 1487.664062 426.808594 L 1388.980469 597.039062 C 1388.980469 597.039062 1388.980469 599.507812 1388.980469 599.507812 L 1364.308594 638.980469 C 1361.84375 643.914062 1356.90625 646.382812 1351.972656 648.847656 C 1347.039062 648.847656 1342.105469 646.382812 1337.171875 643.914062 C 1322.367188 626.644531 1302.632812 614.308594 1277.960938 606.90625 C 1273.027344 606.90625 1270.558594 604.441406 1268.09375 599.507812 C 1265.625 594.574219 1265.625 587.171875 1268.09375 584.703125 L 1292.761719 542.761719 C 1292.761719 542.761719 1292.761719 542.761719 1292.761719 540.296875 L 1376.644531 397.203125 L 1292.761719 254.113281 L 1211.347656 111.019531 L 880.757812 111.019531 L 799.34375 251.644531 C 799.34375 251.644531 799.34375 254.113281 796.875 254.113281 L 774.671875 296.050781 C 769.738281 300.988281 767.269531 303.453125 759.867188 305.921875 C 754.933594 305.921875 750 303.453125 747.53125 300.988281 C 730.261719 283.71875 710.527344 271.382812 688.324219 263.980469 C 683.386719 261.511719 678.453125 259.046875 675.988281 254.113281 C 675.988281 249.175781 675.988281 244.242188 678.453125 239.308594 Z M 678.453125 239.308594 " fill-opacity="1" fill-rule="evenodd"/><path fill="#ffde59" d="M 735.199219 389.800781 C 735.199219 391.175781 735.164062 392.546875 735.097656 393.917969 C 735.027344 395.289062 734.929688 396.660156 734.792969 398.023438 C 734.660156 399.390625 734.492188 400.753906 734.289062 402.109375 C 734.089844 403.46875 733.851562 404.820312 733.585938 406.167969 C 733.316406 407.511719 733.015625 408.851562 732.683594 410.183594 C 732.351562 411.515625 731.984375 412.839844 731.585938 414.152344 C 731.1875 415.464844 730.757812 416.769531 730.292969 418.0625 C 729.832031 419.355469 729.335938 420.632812 728.8125 421.902344 C 728.285156 423.171875 727.730469 424.425781 727.144531 425.667969 C 726.558594 426.90625 725.941406 428.132812 725.292969 429.34375 C 724.644531 430.554688 723.96875 431.75 723.261719 432.925781 C 722.558594 434.105469 721.824219 435.261719 721.0625 436.40625 C 720.296875 437.546875 719.507812 438.667969 718.691406 439.769531 C 717.871094 440.875 717.027344 441.957031 716.15625 443.015625 C 715.285156 444.078125 714.390625 445.117188 713.46875 446.132812 C 712.546875 447.152344 711.601562 448.144531 710.628906 449.117188 C 709.660156 450.085938 708.664062 451.03125 707.648438 451.953125 C 706.628906 452.875 705.589844 453.773438 704.53125 454.644531 C 703.46875 455.515625 702.386719 456.359375 701.285156 457.175781 C 700.179688 457.996094 699.058594 458.785156 697.917969 459.546875 C 696.777344 460.308594 695.617188 461.042969 694.441406 461.75 C 693.261719 462.457031 692.066406 463.132812 690.855469 463.78125 C 689.648438 464.425781 688.421875 465.042969 687.179688 465.628906 C 685.9375 466.21875 684.683594 466.773438 683.414062 467.300781 C 682.148438 467.824219 680.867188 468.316406 679.574219 468.78125 C 678.28125 469.242188 676.980469 469.671875 675.664062 470.070312 C 674.351562 470.472656 673.027344 470.835938 671.699219 471.171875 C 670.367188 471.503906 669.027344 471.804688 667.679688 472.074219 C 666.332031 472.339844 664.980469 472.574219 663.625 472.777344 C 662.265625 472.976562 660.902344 473.144531 659.539062 473.28125 C 658.171875 473.414062 656.800781 473.515625 655.429688 473.582031 C 654.058594 473.652344 652.6875 473.683594 651.316406 473.683594 C 649.941406 473.683594 648.570312 473.652344 647.199219 473.582031 C 645.828125 473.515625 644.460938 473.414062 643.09375 473.28125 C 641.726562 473.144531 640.367188 472.976562 639.007812 472.777344 C 637.648438 472.574219 636.296875 472.339844 634.953125 472.074219 C 633.605469 471.804688 632.265625 471.503906 630.933594 471.171875 C 629.601562 470.835938 628.28125 470.46875 626.964844 470.070312 C 625.652344 469.671875 624.347656 469.242188 623.058594 468.78125 C 621.765625 468.316406 620.484375 467.824219 619.214844 467.300781 C 617.949219 466.773438 616.691406 466.21875 615.453125 465.628906 C 614.210938 465.042969 612.984375 464.425781 611.773438 463.78125 C 610.5625 463.132812 609.371094 462.457031 608.191406 461.75 C 607.015625 461.042969 605.855469 460.308594 604.714844 459.546875 C 603.570312 458.785156 602.449219 457.996094 601.347656 457.175781 C 600.246094 456.359375 599.164062 455.515625 598.101562 454.644531 C 597.039062 453.773438 596 452.875 594.984375 451.953125 C 593.96875 451.03125 592.972656 450.085938 592.003906 449.117188 C 591.03125 448.144531 590.085938 447.152344 589.164062 446.132812 C 588.242188 445.117188 587.34375 444.078125 586.472656 443.015625 C 585.605469 441.957031 584.757812 440.875 583.941406 439.769531 C 583.125 438.667969 582.332031 437.546875 581.570312 436.40625 C 580.808594 435.261719 580.074219 434.105469 579.367188 432.925781 C 578.664062 431.75 577.984375 430.554688 577.339844 429.34375 C 576.691406 428.132812 576.074219 426.90625 575.488281 425.667969 C 574.902344 424.425781 574.34375 423.171875 573.820312 421.902344 C 573.292969 420.632812 572.800781 419.355469 572.335938 418.0625 C 571.875 416.769531 571.445312 415.464844 571.046875 414.152344 C 570.648438 412.839844 570.28125 411.515625 569.949219 410.183594 C 569.613281 408.851562 569.3125 407.511719 569.046875 406.167969 C 568.777344 404.820312 568.542969 403.46875 568.34375 402.109375 C 568.140625 400.753906 567.972656 399.390625 567.839844 398.023438 C 567.703125 396.660156 567.601562 395.289062 567.535156 393.917969 C 567.46875 392.546875 567.433594 391.175781 567.433594 389.800781 C 567.433594 388.429688 567.46875 387.058594 567.535156 385.6875 C 567.601562 384.316406 567.703125 382.945312 567.839844 381.582031 C 567.972656 380.214844 568.140625 378.851562 568.34375 377.496094 C 568.542969 376.136719 568.777344 374.785156 569.046875 373.4375 C 569.3125 372.089844 569.613281 370.753906 569.949219 369.421875 C 570.28125 368.089844 570.648438 366.765625 571.046875 365.453125 C 571.445312 364.140625 571.875 362.835938 572.335938 361.542969 C 572.800781 360.25 573.292969 358.972656 573.820312 357.703125 C 574.34375 356.433594 574.902344 355.179688 575.488281 353.9375 C 576.074219 352.699219 576.691406 351.472656 577.339844 350.261719 C 577.984375 349.050781 578.664062 347.855469 579.367188 346.679688 C 580.074219 345.5 580.808594 344.34375 581.570312 343.199219 C 582.332031 342.058594 583.125 340.9375 583.941406 339.835938 C 584.757812 338.730469 585.605469 337.648438 586.472656 336.589844 C 587.34375 335.527344 588.242188 334.488281 589.164062 333.472656 C 590.085938 332.453125 591.03125 331.460938 592.003906 330.488281 C 592.972656 329.519531 593.96875 328.574219 594.984375 327.652344 C 596 326.730469 597.039062 325.832031 598.101562 324.960938 C 599.164062 324.089844 600.246094 323.246094 601.347656 322.429688 C 602.449219 321.609375 603.570312 320.820312 604.714844 320.058594 C 605.855469 319.292969 607.015625 318.5625 608.191406 317.855469 C 609.371094 317.148438 610.5625 316.472656 611.773438 315.824219 C 612.984375 315.179688 614.210938 314.5625 615.453125 313.972656 C 616.691406 313.386719 617.949219 312.832031 619.214844 312.304688 C 620.484375 311.78125 621.765625 311.285156 623.058594 310.824219 C 624.347656 310.363281 625.652344 309.929688 626.964844 309.53125 C 628.28125 309.132812 629.601562 308.769531 630.933594 308.433594 C 632.265625 308.101562 633.605469 307.800781 634.953125 307.53125 C 636.296875 307.265625 637.648438 307.03125 639.007812 306.828125 C 640.367188 306.628906 641.726562 306.460938 643.09375 306.324219 C 644.460938 306.191406 645.828125 306.089844 647.199219 306.023438 C 648.570312 305.953125 649.941406 305.921875 651.316406 305.921875 C 652.6875 305.921875 654.058594 305.953125 655.429688 306.023438 C 656.800781 306.089844 658.171875 306.191406 659.539062 306.324219 C 660.902344 306.460938 662.265625 306.628906 663.625 306.828125 C 664.980469 307.03125 666.332031 307.265625 667.679688 307.53125 C 669.027344 307.800781 670.367188 308.101562 671.699219 308.433594 C 673.027344 308.769531 674.351562 309.132812 675.664062 309.53125 C 676.980469 309.929688 678.28125 310.363281 679.574219 310.824219 C 680.867188 311.285156 682.148438 311.78125 683.414062 312.304688 C 684.683594 312.832031 685.9375 313.386719 687.179688 313.972656 C 688.421875 314.5625 689.648438 315.179688 690.855469 315.824219 C 692.066406 316.472656 693.261719 317.148438 694.441406 317.855469 C 695.617188 318.5625 696.777344 319.292969 697.917969 320.058594 C 699.058594 320.820312 700.179688 321.609375 701.285156 322.429688 C 702.386719 323.246094 703.46875 324.089844 704.53125 324.960938 C 705.589844 325.832031 706.628906 326.730469 707.648438 327.652344 C 708.664062 328.574219 709.660156 329.519531 710.628906 330.488281 C 711.601562 331.460938 712.546875 332.453125 713.46875 333.472656 C 714.390625 334.488281 715.285156 335.527344 716.15625 336.589844 C 717.027344 337.648438 717.871094 338.730469 718.691406 339.835938 C 719.507812 340.9375 720.296875 342.058594 721.0625 343.199219 C 721.824219 344.34375 722.558594 345.5 723.261719 346.679688 C 723.96875 347.855469 724.644531 349.050781 725.292969 350.261719 C 725.941406 351.472656 726.558594 352.699219 727.144531 353.9375 C 727.730469 355.179688 728.285156 356.433594 728.8125 357.703125 C 729.335938 358.972656 729.832031 360.25 730.292969 361.542969 C 730.757812 362.835938 731.1875 364.140625 731.585938 365.453125 C 731.984375 366.765625 732.351562 368.089844 732.683594 369.421875 C 733.015625 370.753906 733.316406 372.089844 733.585938 373.4375 C 733.851562 374.785156 734.089844 376.136719 734.289062 377.496094 C 734.492188 378.851562 734.660156 380.214844 734.792969 381.582031 C 734.929688 382.945312 735.027344 384.316406 735.097656 385.6875 C 735.164062 387.058594 735.199219 388.429688 735.199219 389.800781 Z M 735.199219 389.800781 " fill-opacity="1" fill-rule="nonzero"/><path fill="#ffde59" d="M 1329.769531 732.730469 C 1329.769531 734.101562 1329.734375 735.476562 1329.667969 736.847656 C 1329.601562 738.21875 1329.5 739.585938 1329.367188 740.953125 C 1329.230469 742.316406 1329.0625 743.679688 1328.863281 745.039062 C 1328.660156 746.394531 1328.425781 747.75 1328.15625 749.09375 C 1327.890625 750.441406 1327.589844 751.78125 1327.257812 753.113281 C 1326.921875 754.445312 1326.554688 755.765625 1326.15625 757.078125 C 1325.757812 758.394531 1325.328125 759.695312 1324.867188 760.988281 C 1324.402344 762.28125 1323.910156 763.5625 1323.382812 764.832031 C 1322.859375 766.097656 1322.304688 767.351562 1321.714844 768.59375 C 1321.128906 769.835938 1320.511719 771.0625 1319.863281 772.273438 C 1319.21875 773.480469 1318.542969 774.675781 1317.835938 775.855469 C 1317.128906 777.03125 1316.394531 778.191406 1315.632812 779.332031 C 1314.871094 780.472656 1314.078125 781.597656 1313.261719 782.699219 C 1312.445312 783.800781 1311.601562 784.882812 1310.730469 785.945312 C 1309.859375 787.003906 1308.960938 788.042969 1308.039062 789.0625 C 1307.117188 790.078125 1306.171875 791.074219 1305.203125 792.042969 C 1304.230469 793.015625 1303.238281 793.960938 1302.21875 794.882812 C 1301.203125 795.804688 1300.164062 796.699219 1299.101562 797.570312 C 1298.039062 798.441406 1296.957031 799.285156 1295.855469 800.105469 C 1294.753906 800.921875 1293.632812 801.710938 1292.488281 802.476562 C 1291.347656 803.238281 1290.1875 803.972656 1289.011719 804.679688 C 1287.835938 805.382812 1286.640625 806.058594 1285.429688 806.707031 C 1284.21875 807.355469 1282.992188 807.972656 1281.75 808.558594 C 1280.511719 809.144531 1279.257812 809.703125 1277.988281 810.226562 C 1276.71875 810.753906 1275.4375 811.246094 1274.148438 811.707031 C 1272.855469 812.171875 1271.550781 812.601562 1270.238281 813 C 1268.921875 813.398438 1267.601562 813.765625 1266.269531 814.097656 C 1264.9375 814.429688 1263.597656 814.730469 1262.253906 815 C 1260.90625 815.269531 1259.554688 815.503906 1258.195312 815.703125 C 1256.839844 815.90625 1255.476562 816.074219 1254.109375 816.207031 C 1252.742188 816.34375 1251.375 816.445312 1250.003906 816.511719 C 1248.632812 816.578125 1247.261719 816.613281 1245.886719 816.613281 C 1244.515625 816.613281 1243.144531 816.578125 1241.773438 816.511719 C 1240.402344 816.445312 1239.03125 816.34375 1237.667969 816.207031 C 1236.300781 816.074219 1234.9375 815.90625 1233.582031 815.703125 C 1232.222656 815.503906 1230.871094 815.269531 1229.523438 815 C 1228.175781 814.730469 1226.839844 814.429688 1225.507812 814.097656 C 1224.175781 813.765625 1222.851562 813.398438 1221.539062 813 C 1220.226562 812.601562 1218.921875 812.171875 1217.628906 811.707031 C 1216.335938 811.246094 1215.054688 810.753906 1213.789062 810.226562 C 1212.519531 809.703125 1211.265625 809.144531 1210.023438 808.558594 C 1208.78125 807.972656 1207.558594 807.355469 1206.347656 806.707031 C 1205.136719 806.058594 1203.941406 805.382812 1202.765625 804.679688 C 1201.585938 803.972656 1200.425781 803.238281 1199.285156 802.476562 C 1198.144531 801.710938 1197.023438 800.921875 1195.917969 800.105469 C 1194.816406 799.285156 1193.734375 798.441406 1192.675781 797.570312 C 1191.613281 796.699219 1190.574219 795.804688 1189.558594 794.882812 C 1188.539062 793.960938 1187.546875 793.015625 1186.574219 792.042969 C 1185.605469 791.074219 1184.65625 790.078125 1183.734375 789.0625 C 1182.8125 788.042969 1181.917969 787.003906 1181.046875 785.945312 C 1180.175781 784.882812 1179.332031 783.800781 1178.515625 782.699219 C 1177.695312 781.597656 1176.90625 780.472656 1176.144531 779.332031 C 1175.378906 778.191406 1174.644531 777.03125 1173.941406 775.855469 C 1173.234375 774.675781 1172.558594 773.480469 1171.910156 772.273438 C 1171.265625 771.0625 1170.648438 769.835938 1170.058594 768.59375 C 1169.472656 767.351562 1168.917969 766.097656 1168.390625 764.832031 C 1167.867188 763.5625 1167.371094 762.28125 1166.910156 760.988281 C 1166.449219 759.695312 1166.015625 758.394531 1165.617188 757.078125 C 1165.21875 755.765625 1164.855469 754.445312 1164.519531 753.113281 C 1164.1875 751.78125 1163.886719 750.441406 1163.617188 749.09375 C 1163.351562 747.75 1163.117188 746.394531 1162.914062 745.039062 C 1162.714844 743.679688 1162.546875 742.316406 1162.410156 740.953125 C 1162.277344 739.585938 1162.175781 738.21875 1162.109375 736.847656 C 1162.039062 735.476562 1162.007812 734.101562 1162.007812 732.730469 C 1162.007812 731.359375 1162.039062 729.984375 1162.109375 728.613281 C 1162.175781 727.242188 1162.277344 725.875 1162.410156 724.507812 C 1162.546875 723.140625 1162.714844 721.78125 1162.914062 720.421875 C 1163.117188 719.0625 1163.351562 717.710938 1163.617188 716.367188 C 1163.886719 715.019531 1164.1875 713.679688 1164.519531 712.347656 C 1164.855469 711.015625 1165.21875 709.695312 1165.617188 708.378906 C 1166.015625 707.066406 1166.449219 705.765625 1166.910156 704.472656 C 1167.371094 703.179688 1167.867188 701.898438 1168.390625 700.628906 C 1168.917969 699.363281 1169.472656 698.105469 1170.058594 696.867188 C 1170.648438 695.625 1171.265625 694.398438 1171.910156 693.1875 C 1172.558594 691.976562 1173.234375 690.785156 1173.941406 689.605469 C 1174.644531 688.429688 1175.378906 687.269531 1176.144531 686.128906 C 1176.90625 684.988281 1177.695312 683.863281 1178.515625 682.761719 C 1179.332031 681.660156 1180.175781 680.578125 1181.046875 679.515625 C 1181.917969 678.457031 1182.8125 677.414062 1183.734375 676.398438 C 1184.65625 675.382812 1185.605469 674.386719 1186.574219 673.417969 C 1187.546875 672.445312 1188.539062 671.5 1189.558594 670.578125 C 1190.574219 669.65625 1191.613281 668.757812 1192.675781 667.890625 C 1193.734375 667.019531 1194.816406 666.171875 1195.917969 665.355469 C 1197.023438 664.539062 1198.144531 663.746094 1199.285156 662.984375 C 1200.425781 662.222656 1201.585938 661.488281 1202.765625 660.78125 C 1203.941406 660.078125 1205.136719 659.398438 1206.347656 658.753906 C 1207.558594 658.105469 1208.78125 657.488281 1210.023438 656.902344 C 1211.265625 656.316406 1212.519531 655.757812 1213.789062 655.234375 C 1215.054688 654.707031 1216.335938 654.214844 1217.628906 653.75 C 1218.921875 653.289062 1220.226562 652.859375 1221.539062 652.460938 C 1222.851562 652.0625 1224.175781 651.695312 1225.507812 651.363281 C 1226.839844 651.027344 1228.175781 650.726562 1229.523438 650.460938 C 1230.871094 650.191406 1232.222656 649.957031 1233.582031 649.757812 C 1234.9375 649.554688 1236.300781 649.386719 1237.667969 649.253906 C 1239.03125 649.117188 1240.402344 649.015625 1241.773438 648.949219 C 1243.144531 648.882812 1244.515625 648.847656 1245.886719 648.847656 C 1247.261719 648.847656 1248.632812 648.882812 1250.003906 648.949219 C 1251.375 649.015625 1252.742188 649.117188 1254.109375 649.253906 C 1255.476562 649.386719 1256.839844 649.554688 1258.195312 649.757812 C 1259.554688 649.957031 1260.90625 650.191406 1262.253906 650.460938 C 1263.597656 650.726562 1264.9375 651.027344 1266.269531 651.363281 C 1267.601562 651.695312 1268.925781 652.0625 1270.238281 652.460938 C 1271.550781 652.859375 1272.855469 653.289062 1274.148438 653.753906 C 1275.441406 654.214844 1276.71875 654.707031 1277.988281 655.234375 C 1279.257812 655.757812 1280.511719 656.316406 1281.753906 656.902344 C 1282.992188 657.488281 1284.21875 658.105469 1285.429688 658.753906 C 1286.640625 659.398438 1287.835938 660.078125 1289.011719 660.78125 C 1290.1875 661.488281 1291.347656 662.222656 1292.492188 662.984375 C 1293.632812 663.746094 1294.753906 664.539062 1295.855469 665.355469 C 1296.957031 666.171875 1298.039062 667.019531 1299.101562 667.890625 C 1300.164062 668.757812 1301.203125 669.65625 1302.21875 670.578125 C 1303.238281 671.5 1304.230469 672.445312 1305.203125 673.417969 C 1306.171875 674.386719 1307.117188 675.382812 1308.039062 676.398438 C 1308.960938 677.414062 1309.859375 678.457031 1310.730469 679.515625 C 1311.601562 680.578125 1312.445312 681.660156 1313.261719 682.761719 C 1314.078125 683.863281 1314.871094 684.988281 1315.632812 686.128906 C 1316.394531 687.269531 1317.128906 688.429688 1317.835938 689.605469 C 1318.542969 690.785156 1319.21875 691.976562 1319.863281 693.1875 C 1320.511719 694.398438 1321.128906 695.625 1321.714844 696.867188 C 1322.304688 698.105469 1322.859375 699.363281 1323.382812 700.628906 C 1323.910156 701.898438 1324.402344 703.179688 1324.867188 704.472656 C 1325.328125 705.765625 1325.757812 707.066406 1326.15625 708.378906 C 1326.554688 709.695312 1326.921875 711.015625 1327.253906 712.347656 C 1327.589844 713.679688 1327.890625 715.019531 1328.15625 716.367188 C 1328.425781 717.710938 1328.660156 719.0625 1328.863281 720.421875 C 1329.0625 721.78125 1329.230469 723.140625 1329.367188 724.507812 C 1329.5 725.875 1329.601562 727.242188 1329.667969 728.613281 C 1329.734375 729.984375 1329.769531 731.359375 1329.769531 732.730469 Z M 1329.769531 732.730469 " fill-opacity="1" fill-rule="nonzero"/><path fill="#ffde59" d="M 927.632812 1416.117188 C 927.632812 1417.492188 927.597656 1418.863281 927.53125 1420.234375 C 927.464844 1421.605469 927.363281 1422.972656 927.226562 1424.339844 C 927.09375 1425.707031 926.925781 1427.070312 926.722656 1428.425781 C 926.523438 1429.785156 926.289062 1431.136719 926.019531 1432.484375 C 925.75 1433.828125 925.453125 1435.167969 925.117188 1436.5 C 924.785156 1437.832031 924.417969 1439.152344 924.019531 1440.46875 C 923.621094 1441.78125 923.191406 1443.085938 922.726562 1444.378906 C 922.265625 1445.667969 921.773438 1446.949219 921.246094 1448.21875 C 920.722656 1449.488281 920.164062 1450.742188 919.578125 1451.980469 C 918.992188 1453.222656 918.375 1454.449219 917.726562 1455.660156 C 917.078125 1456.871094 916.402344 1458.0625 915.699219 1459.242188 C 914.992188 1460.417969 914.257812 1461.578125 913.496094 1462.71875 C 912.730469 1463.863281 911.941406 1464.984375 911.125 1466.085938 C 910.304688 1467.1875 909.460938 1468.269531 908.589844 1469.332031 C 907.71875 1470.394531 906.824219 1471.433594 905.902344 1472.449219 C 904.980469 1473.46875 904.035156 1474.460938 903.0625 1475.429688 C 902.09375 1476.402344 901.097656 1477.347656 900.082031 1478.269531 C 899.0625 1479.191406 898.023438 1480.089844 896.964844 1480.960938 C 895.902344 1481.832031 894.820312 1482.675781 893.71875 1483.492188 C 892.617188 1484.308594 891.492188 1485.101562 890.351562 1485.863281 C 889.210938 1486.625 888.050781 1487.359375 886.875 1488.066406 C 885.695312 1488.769531 884.503906 1489.449219 883.292969 1490.09375 C 882.082031 1490.742188 880.855469 1491.359375 879.613281 1491.945312 C 878.371094 1492.535156 877.117188 1493.089844 875.851562 1493.613281 C 874.582031 1494.140625 873.300781 1494.632812 872.007812 1495.097656 C 870.714844 1495.558594 869.414062 1495.988281 868.097656 1496.386719 C 866.785156 1496.785156 865.464844 1497.152344 864.132812 1497.484375 C 862.800781 1497.820312 861.460938 1498.121094 860.113281 1498.386719 C 858.769531 1498.65625 857.414062 1498.890625 856.058594 1499.09375 C 854.699219 1499.292969 853.339844 1499.460938 851.972656 1499.597656 C 850.605469 1499.730469 849.238281 1499.832031 847.867188 1499.898438 C 846.496094 1499.964844 845.121094 1500 843.75 1500 C 842.378906 1500 841.003906 1499.964844 839.632812 1499.898438 C 838.261719 1499.832031 836.894531 1499.730469 835.527344 1499.597656 C 834.160156 1499.460938 832.800781 1499.292969 831.441406 1499.09375 C 830.082031 1498.890625 828.730469 1498.65625 827.386719 1498.386719 C 826.039062 1498.121094 824.699219 1497.820312 823.367188 1497.484375 C 822.035156 1497.152344 820.714844 1496.785156 819.402344 1496.386719 C 818.085938 1495.988281 816.785156 1495.558594 815.492188 1495.097656 C 814.199219 1494.632812 812.917969 1494.140625 811.648438 1493.613281 C 810.382812 1493.089844 809.128906 1492.535156 807.886719 1491.945312 C 806.644531 1491.359375 805.417969 1490.742188 804.207031 1490.09375 C 802.996094 1489.449219 801.804688 1488.769531 800.625 1488.066406 C 799.449219 1487.359375 798.289062 1486.625 797.148438 1485.863281 C 796.007812 1485.101562 794.882812 1484.308594 793.78125 1483.492188 C 792.679688 1482.675781 791.597656 1481.832031 790.535156 1480.960938 C 789.476562 1480.089844 788.4375 1479.191406 787.417969 1478.269531 C 786.402344 1477.347656 785.40625 1476.402344 784.4375 1475.429688 C 783.464844 1474.460938 782.519531 1473.46875 781.597656 1472.449219 C 780.675781 1471.433594 779.78125 1470.394531 778.910156 1469.332031 C 778.039062 1468.269531 777.195312 1467.1875 776.375 1466.085938 C 775.558594 1464.984375 774.765625 1463.863281 774.003906 1462.71875 C 773.242188 1461.578125 772.507812 1460.417969 771.800781 1459.242188 C 771.097656 1458.066406 770.421875 1456.871094 769.773438 1455.660156 C 769.125 1454.449219 768.507812 1453.222656 767.921875 1451.980469 C 767.335938 1450.742188 766.777344 1449.488281 766.253906 1448.21875 C 765.726562 1446.949219 765.234375 1445.667969 764.773438 1444.378906 C 764.308594 1443.085938 763.878906 1441.78125 763.480469 1440.46875 C 763.082031 1439.152344 762.714844 1437.832031 762.382812 1436.5 C 762.046875 1435.167969 761.746094 1433.828125 761.480469 1432.484375 C 761.210938 1431.136719 760.976562 1429.785156 760.777344 1428.425781 C 760.574219 1427.070312 760.40625 1425.707031 760.273438 1424.339844 C 760.136719 1422.972656 760.035156 1421.605469 759.96875 1420.234375 C 759.902344 1418.863281 759.867188 1417.492188 759.867188 1416.117188 C 759.867188 1414.746094 759.902344 1413.375 759.96875 1412.003906 C 760.035156 1410.632812 760.136719 1409.261719 760.273438 1407.898438 C 760.40625 1406.53125 760.574219 1405.167969 760.777344 1403.808594 C 760.976562 1402.453125 761.210938 1401.101562 761.480469 1399.753906 C 761.746094 1398.40625 762.046875 1397.066406 762.382812 1395.738281 C 762.714844 1394.40625 763.082031 1393.082031 763.480469 1391.769531 C 763.878906 1390.457031 764.308594 1389.152344 764.773438 1387.859375 C 765.234375 1386.566406 765.726562 1385.285156 766.253906 1384.019531 C 766.777344 1382.75 767.335938 1381.496094 767.921875 1380.253906 C 768.507812 1379.011719 769.125 1377.789062 769.773438 1376.578125 C 770.421875 1375.367188 771.097656 1374.171875 771.800781 1372.996094 C 772.507812 1371.816406 773.242188 1370.65625 774.003906 1369.515625 C 774.765625 1368.375 775.558594 1367.253906 776.375 1366.148438 C 777.195312 1365.046875 778.039062 1363.964844 778.910156 1362.902344 C 779.78125 1361.84375 780.675781 1360.804688 781.597656 1359.785156 C 782.519531 1358.769531 783.464844 1357.777344 784.4375 1356.804688 C 785.40625 1355.835938 786.402344 1354.886719 787.417969 1353.964844 C 788.4375 1353.042969 789.476562 1352.148438 790.535156 1351.277344 C 791.597656 1350.40625 792.679688 1349.5625 793.78125 1348.742188 C 794.882812 1347.925781 796.007812 1347.136719 797.148438 1346.375 C 798.289062 1345.609375 799.449219 1344.875 800.625 1344.171875 C 801.804688 1343.464844 802.996094 1342.789062 804.207031 1342.140625 C 805.417969 1341.496094 806.644531 1340.878906 807.886719 1340.289062 C 809.128906 1339.703125 810.382812 1339.148438 811.648438 1338.621094 C 812.917969 1338.097656 814.199219 1337.601562 815.492188 1337.140625 C 816.785156 1336.675781 818.085938 1336.246094 819.402344 1335.847656 C 820.714844 1335.449219 822.035156 1335.085938 823.367188 1334.75 C 824.699219 1334.417969 826.039062 1334.117188 827.386719 1333.847656 C 828.730469 1333.582031 830.082031 1333.347656 831.441406 1333.144531 C 832.800781 1332.941406 834.160156 1332.773438 835.527344 1332.640625 C 836.894531 1332.507812 838.261719 1332.40625 839.632812 1332.335938 C 841.003906 1332.269531 842.378906 1332.238281 843.75 1332.238281 C 845.121094 1332.238281 846.496094 1332.269531 847.867188 1332.335938 C 849.238281 1332.40625 850.605469 1332.507812 851.972656 1332.640625 C 853.339844 1332.773438 854.699219 1332.941406 856.058594 1333.144531 C 857.414062 1333.347656 858.769531 1333.582031 860.113281 1333.847656 C 861.460938 1334.117188 862.800781 1334.417969 864.132812 1334.75 C 865.464844 1335.085938 866.785156 1335.449219 868.097656 1335.847656 C 869.414062 1336.246094 870.714844 1336.675781 872.007812 1337.140625 C 873.300781 1337.601562 874.582031 1338.097656 875.851562 1338.621094 C 877.117188 1339.148438 878.371094 1339.703125 879.613281 1340.289062 C 880.855469 1340.878906 882.082031 1341.496094 883.292969 1342.140625 C 884.503906 1342.789062 885.695312 1343.464844 886.875 1344.171875 C 888.050781 1344.875 889.210938 1345.609375 890.351562 1346.375 C 891.492188 1347.136719 892.617188 1347.925781 893.71875 1348.742188 C 894.820312 1349.5625 895.902344 1350.40625 896.964844 1351.277344 C 898.023438 1352.148438 899.0625 1353.042969 900.082031 1353.964844 C 901.097656 1354.886719 902.09375 1355.835938 903.0625 1356.804688 C 904.035156 1357.777344 904.980469 1358.769531 905.902344 1359.785156 C 906.824219 1360.804688 907.71875 1361.84375 908.589844 1362.90625 C 909.460938 1363.964844 910.304688 1365.046875 911.125 1366.148438 C 911.941406 1367.253906 912.730469 1368.375 913.496094 1369.515625 C 914.257812 1370.65625 914.992188 1371.816406 915.699219 1372.996094 C 916.402344 1374.171875 917.078125 1375.367188 917.726562 1376.578125 C 918.375 1377.789062 918.992188 1379.011719 919.578125 1380.253906 C 920.164062 1381.496094 920.722656 1382.75 921.246094 1384.019531 C 921.773438 1385.285156 922.265625 1386.566406 922.726562 1387.859375 C 923.191406 1389.152344 923.621094 1390.457031 924.019531 1391.769531 C 924.417969 1393.082031 924.785156 1394.40625 925.117188 1395.738281 C 925.453125 1397.066406 925.75 1398.40625 926.019531 1399.753906 C 926.289062 1401.101562 926.523438 1402.453125 926.722656 1403.808594 C 926.925781 1405.167969 927.09375 1406.53125 927.226562 1407.898438 C 927.363281 1409.261719 927.464844 1410.632812 927.53125 1412.003906 C 927.597656 1413.375 927.632812 1414.746094 927.632812 1416.117188 Z M 927.632812 1416.117188 " fill-opacity="1" fill-rule="nonzero"/></svg>