<svg xmlns="http://www.w3.org/2000/svg" xmlns:xlink="http://www.w3.org/1999/xlink" width="2000" zoomAndPan="magnify" viewBox="0 0 1500 1499.999933" height="2000" preserveAspectRatio="xMidYMid meet" version="1.0"><defs><clipPath id="acec48e75e"><path d="M 326.019531 349.675781 L 1173.980469 349.675781 L 1173.980469 1197.632812 L 326.019531 1197.632812 Z M 326.019531 349.675781 " clip-rule="nonzero"/></clipPath><clipPath id="ab6b786480"><path d="M 750 349.675781 C 515.84375 349.675781 326.019531 539.496094 326.019531 773.65625 C 326.019531 1007.8125 515.84375 1197.632812 750 1197.632812 C 984.15625 1197.632812 1173.980469 1007.8125 1173.980469 773.65625 C 1173.980469 539.496094 984.15625 349.675781 750 349.675781 Z M 750 349.675781 " clip-rule="nonzero"/></clipPath><clipPath id="95dcfe1e16"><path d="M 0.0195312 0.675781 L 847.980469 0.675781 L 847.980469 848.632812 L 0.0195312 848.632812 Z M 0.0195312 0.675781 " clip-rule="nonzero"/></clipPath><clipPath id="d19f41a146"><path d="M 424 0.675781 C 189.84375 0.675781 0.0195312 190.496094 0.0195312 424.65625 C 0.0195312 658.8125 189.84375 848.632812 424 848.632812 C 658.15625 848.632812 847.980469 658.8125 847.980469 424.65625 C 847.980469 190.496094 658.15625 0.675781 424 0.675781 Z M 424 0.675781 " clip-rule="nonzero"/></clipPath><clipPath id="ce3bd1e3e9"><rect x="0" width="848" y="0" height="849"/></clipPath><clipPath id="d1a7ec89f8"><path d="M 538.363281 450 L 961.363281 450 L 961.363281 1050 L 538.363281 1050 Z M 538.363281 450 " clip-rule="nonzero"/></clipPath></defs><g clip-path="url(#acec48e75e)"><g clip-path="url(#ab6b786480)"><g transform="matrix(1, 0, 0, 1, 326, 349)"><g clip-path="url(#ce3bd1e3e9)"><g clip-path="url(#95dcfe1e16)"><g clip-path="url(#d19f41a146)"><path fill="#ffffff" d="M 0.0195312 0.675781 L 847.980469 0.675781 L 847.980469 848.632812 L 0.0195312 848.632812 Z M 0.0195312 0.675781 " fill-opacity="1" fill-rule="nonzero"/></g></g></g></g></g></g><path fill="#a6daf1" d="M 922.003906 843.019531 C 922.003906 938.089844 844.988281 1015.152344 749.980469 1015.152344 C 654.976562 1015.152344 577.957031 938.085938 577.957031 843.019531 C 577.957031 747.957031 749.980469 523.027344 749.980469 523.027344 C 749.980469 523.027344 922.003906 747.953125 922.003906 843.019531 Z M 922.003906 843.019531 " fill-opacity="1" fill-rule="nonzero"/><g clip-path="url(#d1a7ec89f8)"><path stroke-linecap="butt" transform="matrix(2.358843, 0, 0, 2.360346, 248.491536, 251.730897)" fill="none" stroke-linejoin="miter" d="M 297.353726 248.99999 C 297.353726 295.808541 259.408086 333.753189 212.599522 333.753189 C 165.792614 333.753189 127.846975 295.808541 127.846975 248.99999 C 127.846975 202.19144 212.599522 91.447282 212.599522 91.447282 C 212.599522 91.447282 297.353726 202.193095 297.353726 248.99999 Z M 297.353726 248.99999 " stroke="#0075b0" stroke-width="9" stroke-opacity="1" stroke-miterlimit="10"/></g></svg>