<svg xmlns="http://www.w3.org/2000/svg" xmlns:xlink="http://www.w3.org/1999/xlink" width="2000" zoomAndPan="magnify" viewBox="0 0 1500 1499.999933" height="2000" preserveAspectRatio="xMidYMid meet" version="1.0"><defs><clipPath id="c03190d0d3"><path d="M 326.019531 349.675781 L 1173.980469 349.675781 L 1173.980469 1197.632812 L 326.019531 1197.632812 Z M 326.019531 349.675781 " clip-rule="nonzero"/></clipPath><clipPath id="03cc4b8407"><path d="M 750 349.675781 C 515.84375 349.675781 326.019531 539.496094 326.019531 773.65625 C 326.019531 1007.8125 515.84375 1197.632812 750 1197.632812 C 984.15625 1197.632812 1173.980469 1007.8125 1173.980469 773.65625 C 1173.980469 539.496094 984.15625 349.675781 750 349.675781 Z M 750 349.675781 " clip-rule="nonzero"/></clipPath><clipPath id="1ea71e3b9f"><path d="M 0.0195312 0.675781 L 847.980469 0.675781 L 847.980469 848.632812 L 0.0195312 848.632812 Z M 0.0195312 0.675781 " clip-rule="nonzero"/></clipPath><clipPath id="3341d8c2b7"><path d="M 424 0.675781 C 189.84375 0.675781 0.0195312 190.496094 0.0195312 424.65625 C 0.0195312 658.8125 189.84375 848.632812 424 848.632812 C 658.15625 848.632812 847.980469 658.8125 847.980469 424.65625 C 847.980469 190.496094 658.15625 0.675781 424 0.675781 Z M 424 0.675781 " clip-rule="nonzero"/></clipPath><clipPath id="a61df23326"><rect x="0" width="848" y="0" height="849"/></clipPath><clipPath id="5557d6ad2d"><path d="M 528.757812 439.703125 L 972.757812 439.703125 L 972.757812 1039.703125 L 528.757812 1039.703125 Z M 528.757812 439.703125 " clip-rule="nonzero"/></clipPath></defs><g clip-path="url(#c03190d0d3)"><g clip-path="url(#03cc4b8407)"><g transform="matrix(1, 0, 0, 1, 326, 349)"><g clip-path="url(#a61df23326)"><g clip-path="url(#1ea71e3b9f)"><g clip-path="url(#3341d8c2b7)"><path fill="#ffffff" d="M 0.0195312 0.675781 L 847.980469 0.675781 L 847.980469 848.632812 L 0.0195312 848.632812 Z M 0.0195312 0.675781 " fill-opacity="1" fill-rule="nonzero"/></g></g></g></g></g></g><g clip-path="url(#5557d6ad2d)"><path fill="#594a42" d="M 916.132812 1039.617188 L 585.382812 1039.617188 C 558.167969 1039.617188 528.757812 1025.570312 528.757812 994.84375 C 528.757812 974.652344 555.09375 921.757812 584.285156 864.695312 C 589.769531 854.160156 594.378906 844.941406 597.234375 839.234375 C 613.914062 804.558594 633.226562 764.175781 651.445312 723.792969 C 658.027344 709.085938 664.171875 695.699219 669.660156 681.871094 C 670.320312 680.335938 670.976562 678.796875 671.636719 677.042969 C 673.609375 672.652344 675.804688 667.386719 675.804688 663.875 L 675.804688 449.664062 C 675.804688 444.179688 680.195312 439.789062 685.683594 439.789062 C 691.167969 439.789062 695.558594 444.179688 695.558594 449.664062 L 695.558594 663.65625 C 695.558594 671.335938 692.265625 678.796875 689.632812 684.722656 C 688.972656 686.261719 688.316406 687.578125 687.878906 688.894531 C 682.171875 703.160156 676.246094 716.546875 669.441406 731.691406 C 651.003906 772.296875 631.691406 812.898438 615.011719 847.574219 C 612.15625 853.5 607.328125 862.9375 601.84375 873.691406 C 584.503906 907.492188 548.511719 977.726562 548.511719 994.84375 C 548.511719 1019.207031 581.429688 1019.863281 585.382812 1019.863281 L 916.351562 1019.863281 C 920.082031 1019.863281 953.222656 1019.207031 953.222656 994.84375 C 953.222656 977.726562 917.230469 907.492188 899.890625 873.691406 C 894.402344 862.9375 889.574219 853.722656 886.722656 847.574219 C 870.042969 812.679688 850.507812 772.296875 832.292969 731.691406 C 825.488281 716.769531 819.5625 703.160156 813.855469 688.894531 C 813.417969 687.578125 812.757812 686.261719 812.101562 684.722656 C 809.464844 678.796875 806.175781 671.117188 806.175781 663.65625 L 806.175781 449.664062 C 806.175781 444.179688 810.5625 439.789062 816.050781 439.789062 C 821.539062 439.789062 825.925781 444.179688 825.925781 449.664062 L 825.925781 663.65625 C 825.925781 667.167969 828.339844 672.433594 830.097656 676.824219 C 830.757812 678.578125 831.632812 680.117188 832.074219 681.652344 C 837.558594 695.480469 843.484375 708.867188 850.289062 723.570312 C 868.503906 763.957031 887.820312 804.339844 904.5 839.015625 C 907.351562 844.722656 911.960938 853.941406 917.449219 864.476562 C 946.640625 921.539062 972.976562 974.433594 972.976562 994.625 C 972.757812 1025.570312 943.347656 1039.617188 916.132812 1039.617188 Z M 916.132812 1039.617188 " fill-opacity="1" fill-rule="nonzero"/></g><path fill="#00a79d" d="M 881.015625 883.128906 C 875.308594 871.9375 870.699219 862.9375 867.628906 856.792969 C 850.726562 821.898438 831.414062 781.292969 812.976562 740.25 C 806.175781 724.886719 800.03125 711.28125 794.101562 696.574219 C 793.664062 695.699219 793.226562 694.601562 792.785156 693.722656 L 792.566406 693.066406 C 789.273438 685.601562 784.886719 675.507812 784.886719 663.65625 L 784.886719 623.929688 C 779.835938 621.953125 776.105469 619.320312 773.253906 617.125 C 769.523438 614.492188 768.207031 613.394531 764.035156 613.394531 C 759.863281 613.394531 758.769531 614.273438 754.816406 617.125 C 749.550781 620.855469 741.648438 626.5625 727.601562 626.5625 C 723.210938 626.5625 719.480469 626.125 716.410156 625.246094 L 716.410156 663.65625 C 716.410156 675.507812 712.019531 685.820312 708.726562 693.066406 L 708.507812 693.503906 C 708.070312 694.601562 707.628906 695.480469 707.191406 696.574219 C 701.484375 711.0625 695.339844 724.886719 688.316406 740.25 C 669.878906 781.074219 650.347656 821.898438 633.667969 856.792969 C 630.59375 863.160156 625.984375 871.9375 620.277344 883.351562 C 608.644531 905.957031 581.652344 958.851562 572.433594 984.308594 C 570.894531 988.699219 568.921875 999.015625 585.164062 999.015625 L 916.132812 999.015625 C 935.226562 999.015625 928.863281 984.308594 928.863281 984.308594 C 919.863281 958.628906 892.648438 905.738281 881.015625 883.128906 Z M 881.015625 883.128906 " fill-opacity="1" fill-rule="nonzero"/><path fill="#594a42" d="M 673.609375 928.125 C 673.609375 928.914062 673.535156 929.699219 673.378906 930.476562 C 673.222656 931.253906 672.996094 932.011719 672.691406 932.742188 C 672.390625 933.476562 672.015625 934.171875 671.578125 934.828125 C 671.136719 935.488281 670.636719 936.097656 670.074219 936.660156 C 669.515625 937.21875 668.90625 937.71875 668.246094 938.160156 C 667.585938 938.601562 666.890625 938.972656 666.160156 939.277344 C 665.425781 939.578125 664.671875 939.808594 663.894531 939.960938 C 663.117188 940.117188 662.332031 940.195312 661.539062 940.195312 C 660.746094 940.195312 659.960938 940.117188 659.183594 939.960938 C 658.40625 939.808594 657.652344 939.578125 656.921875 939.277344 C 656.1875 938.972656 655.492188 938.601562 654.832031 938.160156 C 654.175781 937.71875 653.566406 937.21875 653.003906 936.660156 C 652.445312 936.097656 651.945312 935.488281 651.503906 934.828125 C 651.0625 934.171875 650.691406 933.476562 650.386719 932.742188 C 650.085938 932.011719 649.855469 931.253906 649.699219 930.476562 C 649.546875 929.699219 649.46875 928.914062 649.46875 928.125 C 649.46875 927.332031 649.546875 926.546875 649.699219 925.769531 C 649.855469 924.992188 650.085938 924.234375 650.386719 923.503906 C 650.691406 922.773438 651.0625 922.074219 651.503906 921.417969 C 651.945312 920.757812 652.445312 920.148438 653.003906 919.585938 C 653.566406 919.027344 654.175781 918.527344 654.832031 918.085938 C 655.492188 917.644531 656.1875 917.273438 656.921875 916.972656 C 657.652344 916.667969 658.40625 916.4375 659.183594 916.285156 C 659.960938 916.128906 660.746094 916.050781 661.539062 916.050781 C 662.332031 916.050781 663.117188 916.128906 663.894531 916.285156 C 664.671875 916.4375 665.425781 916.667969 666.160156 916.972656 C 666.890625 917.273438 667.585938 917.644531 668.246094 918.085938 C 668.90625 918.527344 669.515625 919.027344 670.074219 919.585938 C 670.636719 920.148438 671.136719 920.757812 671.578125 921.417969 C 672.015625 922.074219 672.390625 922.773438 672.691406 923.503906 C 672.996094 924.234375 673.222656 924.992188 673.378906 925.769531 C 673.535156 926.546875 673.609375 927.332031 673.609375 928.125 Z M 673.609375 928.125 " fill-opacity="1" fill-rule="nonzero"/><path fill="#594a42" d="M 852.484375 928.125 C 852.484375 928.914062 852.40625 929.699219 852.253906 930.476562 C 852.097656 931.253906 851.867188 932.011719 851.566406 932.742188 C 851.261719 933.476562 850.890625 934.171875 850.449219 934.828125 C 850.007812 935.488281 849.507812 936.097656 848.949219 936.660156 C 848.386719 937.21875 847.777344 937.71875 847.121094 938.160156 C 846.460938 938.601562 845.765625 938.972656 845.03125 939.277344 C 844.300781 939.578125 843.546875 939.808594 842.769531 939.960938 C 841.992188 940.117188 841.207031 940.195312 840.414062 940.195312 C 839.621094 940.195312 838.835938 940.117188 838.058594 939.960938 C 837.28125 939.808594 836.527344 939.578125 835.792969 939.277344 C 835.0625 938.972656 834.367188 938.601562 833.707031 938.160156 C 833.046875 937.71875 832.4375 937.21875 831.878906 936.660156 C 831.316406 936.097656 830.816406 935.488281 830.375 934.828125 C 829.9375 934.171875 829.5625 933.476562 829.261719 932.742188 C 828.957031 932.011719 828.726562 931.253906 828.574219 930.476562 C 828.417969 929.699219 828.339844 928.914062 828.339844 928.125 C 828.339844 927.332031 828.417969 926.546875 828.574219 925.769531 C 828.726562 924.992188 828.957031 924.234375 829.261719 923.503906 C 829.5625 922.773438 829.9375 922.074219 830.375 921.417969 C 830.816406 920.757812 831.316406 920.148438 831.878906 919.585938 C 832.4375 919.027344 833.046875 918.527344 833.707031 918.085938 C 834.367188 917.644531 835.0625 917.273438 835.792969 916.972656 C 836.527344 916.667969 837.28125 916.4375 838.058594 916.285156 C 838.835938 916.128906 839.621094 916.050781 840.414062 916.050781 C 841.207031 916.050781 841.992188 916.128906 842.769531 916.285156 C 843.546875 916.4375 844.300781 916.667969 845.03125 916.972656 C 845.765625 917.273438 846.460938 917.644531 847.121094 918.085938 C 847.777344 918.527344 848.386719 919.027344 848.949219 919.585938 C 849.507812 920.148438 850.007812 920.757812 850.449219 921.417969 C 850.890625 922.074219 851.261719 922.773438 851.566406 923.503906 C 851.867188 924.234375 852.097656 924.992188 852.253906 925.769531 C 852.40625 926.546875 852.484375 927.332031 852.484375 928.125 Z M 852.484375 928.125 " fill-opacity="1" fill-rule="nonzero"/><path fill="#594a42" d="M 751.523438 948.535156 C 744.722656 948.535156 738.355469 944.144531 734.625 936.902344 C 733.746094 935.367188 734.40625 933.390625 736.160156 932.511719 C 737.699219 931.636719 739.671875 932.292969 740.550781 934.050781 C 743.183594 939.097656 747.355469 942.167969 751.746094 942.167969 C 756.132812 942.167969 760.304688 939.097656 762.9375 934.050781 C 763.816406 932.511719 765.792969 931.855469 767.328125 932.511719 C 768.863281 933.390625 769.523438 935.367188 768.863281 936.902344 C 764.695312 944.144531 758.328125 948.535156 751.523438 948.535156 Z M 751.523438 948.535156 " fill-opacity="1" fill-rule="nonzero"/></svg>