<svg xmlns="http://www.w3.org/2000/svg" xmlns:xlink="http://www.w3.org/1999/xlink" width="2000" zoomAndPan="magnify" viewBox="0 0 1500 1499.999933" height="2000" preserveAspectRatio="xMidYMid meet" version="1.0"><defs><clipPath id="d4fb3d850a"><path d="M 326.019531 349.675781 L 1173.980469 349.675781 L 1173.980469 1197.632812 L 326.019531 1197.632812 Z M 326.019531 349.675781 " clip-rule="nonzero"/></clipPath><clipPath id="78f2606fad"><path d="M 750 349.675781 C 515.84375 349.675781 326.019531 539.496094 326.019531 773.65625 C 326.019531 1007.8125 515.84375 1197.632812 750 1197.632812 C 984.15625 1197.632812 1173.980469 1007.8125 1173.980469 773.65625 C 1173.980469 539.496094 984.15625 349.675781 750 349.675781 Z M 750 349.675781 " clip-rule="nonzero"/></clipPath><clipPath id="5bbd64d182"><path d="M 0.0195312 0.675781 L 847.980469 0.675781 L 847.980469 848.632812 L 0.0195312 848.632812 Z M 0.0195312 0.675781 " clip-rule="nonzero"/></clipPath><clipPath id="7a3ce79020"><path d="M 424 0.675781 C 189.84375 0.675781 0.0195312 190.496094 0.0195312 424.65625 C 0.0195312 658.8125 189.84375 848.632812 424 848.632812 C 658.15625 848.632812 847.980469 658.8125 847.980469 424.65625 C 847.980469 190.496094 658.15625 0.675781 424 0.675781 Z M 424 0.675781 " clip-rule="nonzero"/></clipPath><clipPath id="320dd79cf0"><rect x="0" width="848" y="0" height="849"/></clipPath><clipPath id="69a43d6788"><path d="M 499.875 450 L 1000.125 450 L 1000.125 1050 L 499.875 1050 Z M 499.875 450 " clip-rule="nonzero"/></clipPath></defs><g clip-path="url(#d4fb3d850a)"><g clip-path="url(#78f2606fad)"><g transform="matrix(1, 0, 0, 1, 326, 349)"><g clip-path="url(#320dd79cf0)"><g clip-path="url(#5bbd64d182)"><g clip-path="url(#7a3ce79020)"><path fill="#ffffff" d="M 0.0195312 0.675781 L 847.980469 0.675781 L 847.980469 848.632812 L 0.0195312 848.632812 Z M 0.0195312 0.675781 " fill-opacity="1" fill-rule="nonzero"/></g></g></g></g></g></g><g clip-path="url(#69a43d6788)"><path fill="#0e0f11" d="M 983.824219 625.761719 C 960.4375 540.457031 896.964844 451.335938 800.03125 450.621094 L 724.871094 450.066406 C 627.433594 449.34375 560.035156 515.648438 527.105469 602.800781 C 476.671875 736.273438 490.042969 938.1875 620.058594 1023.355469 C 644.882812 1039.617188 672.964844 1049.949219 702.96875 1049.941406 L 792.644531 1049.921875 C 879.148438 1049.898438 941.128906 982.109375 970.144531 907.050781 C 1004.902344 817.140625 1009.324219 718.726562 983.835938 625.753906 Z M 777.03125 918.105469 C 711.222656 840.773438 711.800781 655.484375 779.3125 575.089844 C 844.007812 654.742188 845.203125 835.585938 777.03125 918.105469 Z M 777.03125 918.105469 " fill-opacity="1" fill-rule="nonzero"/></g><path fill="#5a5960" d="M 812.667969 471.402344 C 810.730469 477.824219 805.96875 479.164062 799.933594 478.53125 C 798.503906 485.523438 794.0625 488.785156 787.402344 484.789062 L 784.882812 491.070312 L 760.394531 489.585938 L 761.242188 493.648438 L 763.808594 500.589844 C 745.695312 519.871094 730.84375 540.941406 719.269531 563.8125 L 712.285156 565.695312 C 709.292969 570.945312 703.730469 573.796875 695.613281 574.25 L 700.042969 578.351562 C 703.050781 578.847656 705.945312 580.101562 706.667969 582.832031 C 707.285156 585.148438 696.253906 623.058594 690.59375 625.085938 L 687.699219 629.632812 C 669.507812 632.355469 665.03125 635.035156 674.277344 637.679688 C 676.472656 635.542969 682.257812 635.105469 684.503906 636.542969 C 689.304688 639.613281 680.234375 688.824219 677.964844 697.90625 L 672.472656 702.160156 C 667.328125 708.515625 667.191406 712.117188 672.058594 712.957031 C 679.445312 720.816406 679.730469 740.855469 672.320312 748.742188 C 666.667969 755.554688 666.398438 759.269531 671.515625 759.886719 L 677.390625 766.878906 C 677.859375 784.804688 679.929688 802.59375 683.597656 820.230469 L 678.453125 827.992188 C 675.222656 837.539062 676.160156 841.835938 681.25 840.890625 C 693.371094 850.113281 700.523438 875.699219 696.746094 890.339844 C 697.808594 892.832031 698.175781 895.484375 696.515625 897.386719 C 672.238281 925.160156 658.449219 942.878906 671.121094 982.140625 L 665.257812 986.828125 C 660.78125 993.839844 657.835938 992.007812 655.59375 984.164062 C 611.214844 953.035156 608.617188 940.804688 549.707031 928.382812 C 548.386719 918.757812 544.886719 908.683594 539.214844 898.164062 C 531.804688 884.085938 530.292969 871.261719 534.667969 859.699219 C 578.910156 875.273438 599.660156 925.125 608.867188 913.953125 C 595.308594 884.746094 558.730469 860.535156 530.863281 846.738281 L 523.730469 840.636719 L 518.484375 804.675781 C 515.550781 792.894531 517.566406 784.394531 524.535156 779.175781 C 565.375 794.886719 575.410156 845.253906 582.816406 844.691406 C 586.363281 844.417969 587.546875 841.738281 587.671875 839.484375 C 587.796875 837.128906 585.144531 836.308594 583.992188 833.082031 C 573.507812 803.613281 546.714844 776.363281 519.15625 765.601562 C 514.183594 761.46875 517.050781 717.742188 518.898438 716 C 520.925781 714.097656 523.488281 713.542969 526.195312 713.765625 C 562.113281 735.542969 567.828125 773.085938 575.695312 768.578125 C 585.121094 763.183594 554.871094 717.882812 521.507812 700.066406 C 525.113281 675.894531 530.742188 651.976562 538.417969 628.320312 L 546.289062 622.050781 C 577.367188 647.375 569.4375 709.765625 582.546875 687.644531 C 586.441406 681.074219 568.519531 624.988281 552.34375 612.207031 C 550.238281 611 547.207031 609.054688 547.601562 607.328125 C 548.648438 602.757812 562.660156 568.667969 564.257812 567.195312 C 566.113281 565.488281 569.078125 565.515625 571.6875 565.605469 C 594.613281 588.308594 588.851562 623.023438 595.640625 623.324219 C 606.882812 623.816406 596.683594 575.804688 574.949219 556.335938 C 580.90625 542.082031 590.023438 529.203125 602.285156 517.691406 C 610.136719 507.054688 618.664062 502.421875 627.855469 503.789062 C 636.730469 528.222656 615.644531 551.460938 621.371094 556.015625 C 633.4375 565.621094 643.785156 509.027344 637.472656 494.242188 C 636.527344 481.726562 663.566406 472.21875 675.207031 469.226562 C 675.910156 469.046875 677.015625 470.4375 678.234375 472.261719 C 678.402344 477.304688 674.328125 481.453125 673.265625 487.613281 C 672.625 491.285156 678.082031 491.910156 679.171875 490.632812 C 704.660156 460.792969 697.761719 473.59375 706.945312 466.207031 C 716.957031 461.972656 723.09375 462.679688 725.367188 468.324219 C 725.226562 470.046875 724.289062 477.441406 727.503906 477.65625 C 739.191406 478.457031 744.589844 466.339844 752.769531 463.5625 C 773.121094 462.519531 793.179688 463.464844 812.96875 466.386719 L 812.675781 471.414062 Z M 812.667969 471.402344 " fill-opacity="1" fill-rule="nonzero"/><path fill="#b9bcc0" d="M 546.28125 622.046875 C 540.972656 646.769531 531.242188 670.300781 527.820312 696.996094 C 527.390625 700.378906 522.726562 700.878906 521.496094 700.058594 C 519.105469 698.789062 511.574219 699.085938 512.429688 693.226562 C 516.386719 666.042969 522.289062 639.589844 531.867188 614.5625 C 539.054688 614.554688 542.449219 618.929688 546.28125 622.046875 Z M 546.28125 622.046875 " fill-opacity="1" fill-rule="nonzero"/><path fill="#b5b7b9" d="M 627.851562 503.785156 C 611.269531 516.453125 595.863281 531.167969 584.617188 550.332031 C 582.164062 554.511719 578.796875 556.746094 574.9375 556.328125 C 571.945312 553.648438 568.703125 551.34375 564.933594 546.476562 C 580.46875 524.820312 598.738281 505.179688 621.976562 490.542969 C 627.105469 492.328125 626.691406 500.609375 627.84375 503.785156 Z M 627.851562 503.785156 " fill-opacity="1" fill-rule="nonzero"/><path fill="#b0b4b8" d="M 524.53125 779.175781 C 522.507812 801.800781 527.4375 824.355469 530.863281 846.738281 C 527.945312 845.34375 519.273438 847.042969 517.789062 841.871094 C 511.636719 820.421875 510.617188 798.371094 508.617188 775.417969 C 516.496094 772.816406 520.085938 777.46875 524.53125 779.183594 Z M 524.53125 779.175781 " fill-opacity="1" fill-rule="nonzero"/><path fill="#b5b8bb" d="M 571.679688 565.597656 L 552.335938 612.199219 C 548.871094 610.332031 538.195312 608.886719 537.195312 602.992188 C 541.984375 586.789062 550.574219 571.203125 559.945312 556.78125 C 565.0625 554.953125 569.105469 563.050781 571.679688 565.597656 Z M 571.679688 565.597656 " fill-opacity="1" fill-rule="nonzero"/><path fill="#b7bbbe" d="M 866.089844 477.699219 C 848.375 474.714844 830.589844 471.011719 812.667969 471.402344 C 815.839844 467.160156 752.269531 469.652344 752.761719 463.554688 C 790.507812 453.433594 832.316406 459.339844 866.082031 477.699219 Z M 866.089844 477.699219 " fill-opacity="1" fill-rule="nonzero"/><path fill="#b2b7bc" d="M 534.660156 859.699219 C 539.160156 882.785156 546.636719 904.96875 556.855469 927.304688 C 553.734375 929.054688 551.523438 928.109375 549.699219 928.390625 C 533.390625 908.21875 527.730469 880.585938 519.917969 855.222656 C 526.820312 853.375 530.105469 858.097656 534.660156 859.699219 Z M 534.660156 859.699219 " fill-opacity="1" fill-rule="nonzero"/><path fill="#b2b5b9" d="M 526.183594 713.75 C 520.710938 725.039062 526.085938 764.171875 519.136719 765.59375 C 499.328125 772.507812 512.054688 721.761719 510.921875 707.953125 C 517.488281 707.195312 521.664062 711.015625 526.175781 713.75 Z M 526.183594 713.75 " fill-opacity="1" fill-rule="nonzero"/><path fill="#bcbfc2" d="M 678.234375 472.261719 C 662.390625 475.109375 651.152344 486.351562 637.472656 494.238281 C 635.996094 492.027344 631.273438 488.710938 631.070312 483.386719 C 651.054688 471.804688 673.335938 465.074219 696.664062 460.527344 C 690.90625 464.695312 685.226562 471.003906 678.234375 472.261719 Z M 678.234375 472.261719 " fill-opacity="1" fill-rule="nonzero"/><path fill="#9b9ca1" d="M 563.125 940.871094 C 571.578125 959.714844 582.21875 977.394531 599.746094 991.335938 C 600.140625 993.496094 598.105469 994.203125 596.835938 993.777344 C 579.511719 980.023438 567.238281 960.757812 553.378906 940.304688 C 556.898438 937.003906 559.988281 940.199219 563.132812 940.871094 Z M 563.125 940.871094 " fill-opacity="1" fill-rule="nonzero"/><path fill="#b0b4b8" d="M 725.359375 468.320312 L 706.9375 466.199219 C 717.109375 458.023438 730.21875 457.113281 743.925781 461.050781 C 736.042969 464.285156 731.183594 466.785156 725.359375 468.320312 Z M 725.359375 468.320312 " fill-opacity="1" fill-rule="nonzero"/><path fill="#59575f" d="M 756.214844 906.46875 L 763.664062 907.039062 C 852.722656 1012.894531 921.328125 899.171875 937.3125 800.957031 C 950.640625 719.039062 937.734375 564.710938 839.324219 542.457031 C 830.289062 544.039062 823.464844 542.5 818.832031 537.839844 C 817.480469 536.980469 815.371094 539.921875 812.257812 536.4375 C 846.710938 510.699219 904.144531 528.890625 927.980469 566.175781 C 946.746094 595.523438 959.902344 627.917969 965.894531 662.683594 C 979.566406 742.007812 974.324219 820.945312 945.265625 895.605469 C 935.582031 920.480469 923.453125 943.050781 906.074219 961.828125 C 868.914062 1001.949219 810.941406 998.695312 776.730469 957.402344 C 768.960938 948.03125 743.152344 923.792969 756.214844 906.476562 Z M 756.214844 906.46875 " fill-opacity="1" fill-rule="nonzero"/><path fill="#3f3c47" d="M 963.929688 593.757812 C 949.316406 556.558594 902.886719 483.914062 866.089844 477.707031 C 851.140625 472.375 835.769531 468.414062 820 466.445312 C 816.742188 466.035156 814.285156 468.386719 812.675781 471.402344 C 807.878906 471.503906 800.753906 472.15625 796.324219 473.839844 C 794.011719 477.894531 791.5625 482.578125 787.410156 484.792969 L 784.175781 490.667969 C 773.355469 488.023438 765.710938 489.015625 761.246094 493.648438 C 747.507812 512.179688 717.367188 542.707031 712.292969 565.695312 L 713.714844 570.046875 C 705.625 570.105469 701.070312 572.875 700.050781 578.351562 C 704.210938 581.941406 686.964844 612.152344 690.601562 625.085938 C 689.90625 627.378906 690.226562 628.835938 690.996094 629.746094 C 682.601562 629.695312 669.03125 631.710938 674.285156 637.679688 C 691.789062 627.039062 667.238281 689.617188 672.480469 702.160156 C 675.214844 704.398438 675.078125 708 672.0625 712.957031 C 669.910156 724.78125 670.183594 736.933594 672.328125 748.742188 C 675.5625 751.074219 675.292969 754.789062 671.523438 759.886719 C 669.558594 782.695312 675.257812 805.378906 678.457031 827.992188 C 679.777344 832.253906 680.707031 836.558594 681.257812 840.890625 C 685.628906 857.605469 689.808594 874.503906 696.753906 890.339844 C 702.328125 890.429688 702.105469 893.394531 696.085938 899.234375 L 697.800781 903.191406 C 696.511719 912.84375 699.976562 923.523438 708.195312 935.214844 C 713.820312 949.476562 721.378906 959.625 730.878906 965.671875 C 737.808594 962.160156 737.238281 967.222656 729.164062 980.851562 C 730.949219 977.554688 731.046875 974.921875 727.484375 972.652344 L 720.199219 967.949219 L 683.492188 975.316406 L 677.882812 981.675781 C 673.195312 982.023438 668.996094 983.738281 665.265625 986.828125 C 662.289062 985.289062 658.871094 984.640625 655.601562 984.164062 C 640.207031 1001.207031 621.984375 953.480469 563.132812 940.871094 L 561.097656 945.261719 C 571.6875 963.515625 583.601562 979.691406 596.835938 993.785156 C 598.773438 995.320312 598.800781 998.277344 603.480469 998.75 C 638.363281 1002.285156 671.875 1011.429688 702.59375 1028.757812 C 710.425781 1050.324219 642.507812 1001.921875 618.359375 1010.53125 C 661.449219 1048.84375 735.988281 1045.878906 790.519531 1042.511719 C 834.53125 1039.796875 874.324219 1024.265625 905.15625 992.605469 C 930.695312 966.386719 950.789062 936.5625 963.820312 900.964844 C 1000.019531 802.09375 1002.332031 691.503906 963.945312 593.757812 Z M 925.027344 871.566406 C 915.167969 898.011719 900.011719 920.828125 878.628906 937.921875 C 850.210938 960.644531 811.480469 961.363281 783.945312 937.554688 C 773.675781 928.671875 761.929688 918.035156 756.207031 906.460938 C 710.367188 813.765625 706.945312 698.074219 749.464844 606.757812 C 764.308594 574.882812 787.535156 549.585938 818.820312 537.824219 C 869.59375 525.953125 908.601562 574.136719 924.679688 616 C 956.183594 697.980469 955.746094 789.125 925.015625 871.558594 Z M 925.027344 871.566406 " fill-opacity="1" fill-rule="nonzero"/><path fill="#5f5e64" d="M 730.871094 965.671875 C 737.226562 968.464844 733.988281 974.15625 727.476562 972.652344 C 711.007812 976.335938 694.871094 981.984375 677.875 981.675781 C 662.210938 960.050781 675.113281 920.585938 697.800781 903.191406 C 699.355469 901.976562 700.28125 902.96875 701.085938 904.957031 C 708.246094 922.507812 716.292969 938.769531 727.082031 954.371094 C 729.789062 958.277344 731.546875 961.769531 730.871094 965.667969 Z M 730.871094 965.671875 " fill-opacity="1" fill-rule="nonzero"/><path fill="#4a4852" d="M 925.007812 643.855469 C 944.15625 710.988281 944.40625 783.097656 923.402344 851.042969 C 917.007812 871.71875 907.746094 888.382812 896.214844 905.984375 C 870.941406 944.558594 823.695312 960.917969 794.699219 933.894531 C 792.160156 926.242188 800.664062 909.996094 809.40625 912.335938 L 814.542969 912.828125 C 861.777344 829.761719 867.464844 718.832031 838.074219 629.003906 L 840.203125 622.246094 C 828.777344 608.304688 846.355469 605.769531 859.429688 606.015625 C 886.652344 606.515625 912.136719 619.378906 925.015625 643.855469 Z M 925.007812 643.855469 " fill-opacity="1" fill-rule="nonzero"/><path fill="#3b3845" d="M 925.007812 643.855469 C 914.664062 636.175781 904.679688 627.539062 892.660156 620.386719 C 876.039062 610.492188 833.878906 607.902344 840.199219 622.246094 C 836.664062 621.894531 834.898438 621.710938 834.898438 621.710938 C 846.808594 650.375 850.902344 680.625 854.863281 711.0625 C 855.828125 718.507812 858.734375 761.941406 854.988281 766.074219 C 854.214844 766.921875 852.203125 766.640625 849.839844 766.046875 L 843.792969 762.742188 C 843.976562 770.335938 843.988281 776.597656 834.914062 775.070312 C 831.941406 758.449219 836.300781 741.507812 836.046875 723.609375 C 835.351562 674.890625 818.722656 608.507812 786.597656 568.640625 C 810.515625 539.5 850.382812 536.507812 877.949219 562.058594 C 902.4375 584.753906 916.289062 613.285156 925 643.847656 Z M 925.007812 643.855469 " fill-opacity="1" fill-rule="nonzero"/><path fill="#bec1c6" d="M 849.839844 766.050781 C 851.722656 767.984375 853.285156 769.980469 853.765625 772.210938 C 859.320312 798.261719 832.003906 886.652344 815.613281 908.863281 C 814.328125 910.609375 812.007812 911.578125 809.398438 912.34375 C 806.425781 917.855469 797.589844 936.566406 794.691406 933.902344 C 792.171875 931.554688 786.757812 932.410156 785.097656 928.542969 C 783.113281 923.898438 786.730469 921.660156 789.511719 917.417969 C 817.792969 874.351562 832.058594 825.171875 834.90625 775.078125 C 840.914062 770.253906 834.457031 738.78125 838.851562 737.746094 C 840.90625 737.257812 848.113281 736.78125 848.683594 739.160156 C 850.773438 747.957031 850.097656 757.375 849.835938 766.050781 Z M 849.839844 766.050781 " fill-opacity="1" fill-rule="nonzero"/><path fill="#131316" d="M 840.199219 622.246094 C 872.128906 715.402344 868.414062 827.125 816.960938 914.273438 C 815.257812 917.148438 813.808594 918.355469 811.40625 917.378906 C 809.191406 916.480469 809.128906 914.503906 809.398438 912.34375 C 833.726562 867.191406 848.292969 817.367188 849.839844 766.046875 C 858.074219 757 850.527344 743.6875 850.910156 731.824219 C 852.242188 690.144531 842.371094 652.503906 826.789062 613.652344 C 834.234375 611.386719 838.710938 617.902344 840.199219 622.238281 Z M 840.199219 622.246094 " fill-opacity="1" fill-rule="nonzero"/><path fill="#131316" d="M 787.402344 484.792969 C 790.539062 489.472656 795.726562 496.5 790.894531 499.507812 C 780.007812 494.773438 770.792969 494 761.242188 493.648438 C 742.222656 492.945312 727.179688 498.597656 711.082031 505.457031 C 682.769531 517.523438 668.765625 543.609375 642.304688 561.195312 C 660.824219 519.953125 703.015625 487.128906 744.292969 485.980469 L 787.394531 484.789062 Z M 787.402344 484.792969 " fill-opacity="1" fill-rule="nonzero"/><path fill="#121215" d="M 671.515625 759.894531 C 656.671875 764.019531 645.480469 772.398438 636.625 784.082031 C 606.140625 824.332031 621.09375 863.253906 609.625 862.546875 C 595.960938 861.707031 609.109375 765.207031 672.320312 748.75 C 677.957031 748.300781 685.351562 745.257812 689.609375 753.382812 C 682.839844 757.84375 676.890625 758.40625 671.523438 759.894531 Z M 671.515625 759.894531 " fill-opacity="1" fill-rule="nonzero"/><path fill="#131316" d="M 674.277344 637.679688 C 638.867188 646.757812 617.457031 678.042969 604.277344 710.523438 C 602.652344 714.535156 600.445312 716.894531 596.988281 714.519531 C 595.566406 713.546875 594.246094 711.320312 595.433594 708.152344 C 612.160156 663.558594 643.070312 630.164062 690.601562 625.078125 C 719.839844 639.980469 675.507812 630.59375 674.285156 637.675781 Z M 674.277344 637.679688 " fill-opacity="1" fill-rule="nonzero"/><path fill="#100f12" d="M 681.25 840.898438 C 625.289062 879.59375 647.851562 927.828125 633.15625 923.117188 C 630.628906 922.308594 630.101562 918.550781 630.09375 915.570312 C 629.988281 878.382812 651.636719 850 678.457031 827.992188 C 686 827.886719 691.210938 821.214844 698.289062 829.117188 L 681.257812 840.890625 Z M 681.25 840.898438 " fill-opacity="1" fill-rule="nonzero"/><path fill="#111114" d="M 712.292969 565.703125 C 719.964844 566.773438 727.367188 564.898438 726.21875 573.699219 C 716.144531 571.734375 707.695312 577.035156 700.050781 578.351562 C 640.480469 588.664062 623.421875 643.984375 617.457031 629.078125 C 617.054688 628.070312 616.804688 626.136719 618.101562 624.234375 C 640.367188 591.691406 674.402344 571.328125 712.292969 565.695312 Z M 712.292969 565.703125 " fill-opacity="1" fill-rule="nonzero"/><path fill="#131315" d="M 697.800781 903.191406 L 698.789062 910.484375 C 682.054688 926.507812 670.972656 953.253906 681.277344 975.421875 L 677.875 981.675781 C 677.390625 984.355469 676.277344 987.382812 674.917969 989.078125 C 671.773438 993 668.070312 988.28125 665.257812 986.828125 L 662.550781 956.210938 C 660.15625 929.089844 676.925781 906.242188 696.746094 890.339844 C 701.488281 886.535156 709.625 881.691406 716.234375 887.917969 C 707.625 892.882812 703.078125 899.144531 697.800781 903.191406 Z M 697.800781 903.191406 " fill-opacity="1" fill-rule="nonzero"/><path fill="#141317" d="M 672.058594 712.957031 C 617.359375 727.332031 609.769531 778.425781 600.535156 772.476562 C 599.339844 771.703125 597.292969 769.101562 598.535156 766.433594 C 613.359375 734.753906 640.847656 713.5 672.472656 702.15625 C 681.0625 701.621094 689.699219 693.058594 695.363281 703.121094 C 686.40625 707.222656 678.945312 711.144531 672.058594 712.953125 Z M 672.058594 712.957031 " fill-opacity="1" fill-rule="nonzero"/><path fill="#141317" d="M 727.476562 972.652344 C 729.566406 969.429688 729.574219 966.964844 730.871094 965.671875 C 736.84375 959.722656 737.558594 951.773438 744.890625 947.753906 C 759.96875 957.882812 708.863281 984.480469 738.746094 1034.3125 C 736.730469 1038.902344 729.066406 1036.867188 726.648438 1032.363281 C 716.136719 1012.710938 719.339844 991.777344 727.476562 972.652344 Z M 727.476562 972.652344 " fill-opacity="1" fill-rule="nonzero"/></svg>